PathFileType	4	(X/Y/Z)	E:\Qualisys_Data\Carbon_Farble_Plate\Data\Amateur_Runner\S14\T3\S14T3V12_c3d.trc
DataRate	CameraRate	NumFrames	NumMarkers	Units	OrigDataRate	OrigDataStartFrame	OrigNumFrames
200.000000	200.000000	4	39	mm	200.000000	163	327
Frame#	Time	LSHO			RSHO			LICST			RICST			LASIS			LHEEL			RASIS			LTROC			RTROC			SACR			LTH1			LSK4			LTH2			LTH3			RHM5			LSK2			LTH4			RTH1			LTOE			RTH2			RTH3			RTH4			LLEP			RLEP			LSK1			LSK3			RSK1			LHM5			RSK2			LFT1			RSK3			RSK4			LLME			RLME			RTOE			RHEEL			RFT1			RFT2			LFT2			
		X1	Y1	Z1	X2	Y2	Z2	X3	Y3	Z3	X4	Y4	Z4	X5	Y5	Z5	X6	Y6	Z6	X7	Y7	Z7	X8	Y8	Z8	X9	Y9	Z9	X10	Y10	Z10	X11	Y11	Z11	X12	Y12	Z12	X13	Y13	Z13	X14	Y14	Z14	X15	Y15	Z15	X16	Y16	Z16	X17	Y17	Z17	X18	Y18	Z18	X19	Y19	Z19	X20	Y20	Z20	X21	Y21	Z21	X22	Y22	Z22	X23	Y23	Z23	X24	Y24	Z24	X25	Y25	Z25	X26	Y26	Z26	X27	Y27	Z27	X28	Y28	Z28	X29	Y29	Z29	X30	Y30	Z30	X31	Y31	Z31	X32	Y32	Z32	X33	Y33	Z33	X34	Y34	Z34	X35	Y35	Z35	X36	Y36	Z36	X37	Y37	Z37	X38	Y38	Z38	X39	Y39	Z39	

164	0.815	-140.7373809814453	1458.760498046875	-529.9168701171875	-201.3209533691406	1459.054321289062	-241.8264617919922	-201.5641021728516	1005.153503417969	-512.5955810546875	-164.1416168212891	1008.822387695312	-242.2625122070312	-162.8470306396484	952.4178466796876	-497.3816528320312	-751.5193481445312	380.1561889648438	-391.2235412597656	-138.5528259277344	967.0626831054688	-267.3180847167969	-318.4365234375	904.5062255859376	-525.5036010742188	-259.8580932617188	876.3908081054688	-195.7882080078125	-322.9442443847656	1002.840881347656	-371.3344116210938	-331.5897827148438	678.7363891601562	-540.436767578125	-619.48291015625	464.6830749511719	-470.9826354980469	-397.7143859863281	702.2442626953125	-500.3341674804688	-355.7531433105469	582.768798828125	-526.4718627929688	181.4150085449219	136.7040252685547	-246.6392364501953	-539.7888793945312	519.5714721679688	-495.2174682617188	-424.4938354492188	607.41259765625	-491.5252685546875	-70.03497314453125	696.2020263671875	-218.5060882568359	-779.9922485351562	123.0537338256836	-434.1829528808594	-142.2137298583984	669.2037353515625	-198.8994293212891	-40.60585021972656	606.4150390625	-255.0007476806641	-114.59619140625	575.4671020507812	-226.8144073486328	-436.2099609375	536.7405395507812	-513.8261108398438	-64.80931854248047	522.947021484375	-241.0399627685547	-497.1480712890625	451.5321044921875	-512.608154296875	-581.464599609375	396.2794494628906	-494.6896667480469	-8.861222267150879	414.4127197265625	-243.1266174316406	-808.5823364257812	198.1611633300781	-480.8036193847656	-89.72476196289062	384.7596435546875	-242.5144348144531	-771.6328735351562	366.3255920410156	-357.5026550292969	19.53329849243164	315.2503662109375	-257.2756958007812	-56.17033004760742	295.284912109375	-255.9761962890625	-744.870849609375	337.8046264648438	-455.8194274902344	36.80060195922852	134.5943298339844	-280.9323120117188	237.3336791992188	191.3907165527344	-308.1785888671875	2.448300361633301	83.23815155029297	-339.0990905761719	27.83018112182617	67.45933532714844	-368.6688842773438	11.18336486816406	59.25188064575195	-317.9666137695312	-786.952392578125	381.6625061035156	-407.0171508789062
165	0.82	-125.0862579345703	1455.805908203125	-529.5839233398438	-185.5689544677734	1456.08642578125	-241.4366912841797	-185.6847229003906	1002.619812011719	-512.8009643554688	-148.1536712646484	1006.415588378906	-242.2449188232422	-146.4772644042969	950.3728637695312	-497.3071899414062	-733.8793334960938	383.2976379394531	-391.7453308105469	-122.3662185668945	964.7490844726562	-267.1845092773438	-301.3824462890625	900.9957885742188	-525.458740234375	-244.0644683837891	873.2022094726562	-196.6965789794922	-306.8983459472656	999.4578247070312	-371.0904541015625	-312.5087585449219	674.9856567382812	-541.447998046875	-600.2612915039062	465.0678405761719	-472.9420776367188	-378.7263793945312	697.9601440429688	-501.824462890625	-335.1285095214844	578.6492309570312	-528.0731201171875	195.3236694335938	132.7342376708984	-247.9403991699219	-519.8024291992188	517.8377685546875	-497.4078063964844	-404.7759704589844	602.8786010742188	-493.7841796875	-53.13391876220703	694.56787109375	-218.7649993896484	-766.7720947265625	126.8955917358398	-434.3388061523438	-125.5117263793945	667.2400512695312	-200.0272064208984	-23.13999176025391	605.2167358398438	-255.6505584716797	-97.45423889160156	573.4912719726562	-228.5248565673828	-415.779052734375	533.3038330078125	-516.5838623046875	-47.62770080566406	520.89794921875	-241.6110687255859	-478.4032287597656	449.0973205566406	-514.3746948242188	-563.6689453125	395.805419921875	-495.7145385742188	7.062557220458984	410.7624206542969	-243.9537658691406	-794.4411010742188	202.4438629150391	-480.4933471679688	-73.66092681884766	382.3083801269531	-243.5298156738281	-753.7156982421875	370.1962280273438	-357.3692626953125	35.20450592041016	311.8284301757812	-258.1747131347656	-41.24944305419922	292.3304443359375	-257.7627258300781	-728.14404296875	341.0958862304688	-455.6126708984375	50.68944549560547	131.3088073730469	-282.3762512207031	251.3969268798828	187.9612579345703	-310.5136413574219	16.26105880737305	79.61459350585938	-340.5267028808594	41.43973159790039	63.89533233642578	-370.1729125976562	24.98911666870117	56.09785461425781	-319.3720397949219	-769.0267944335938	385.7235107421875	-406.8894958496094
166	0.825	-109.9548034667969	1453.011840820312	-528.9364013671875	-169.7162628173828	1453.188720703125	-240.6795959472656	-169.7766265869141	999.855712890625	-512.78759765625	-132.3639831542969	1003.49755859375	-242.005126953125	-129.9661102294922	947.9708251953124	-497.3341979980469	-715.4220581054688	386.1378173828125	-391.2876281738281	-106.426872253418	961.6823120117188	-266.8438720703125	-284.2999572753906	897.3961181640625	-525.3781127929688	-228.4602966308594	869.8984375	-196.6198272705078	-290.9987182617188	995.8829345703124	-370.4937438964844	-292.9559020996094	671.1923828125	-542.9939575195312	-580.8360595703125	464.7498168945312	-474.4758605957031	-359.4859619140625	693.3048095703125	-503.8407592773438	-314.7995300292969	574.3370361328125	-529.7936401367188	208.7881011962891	128.6439819335938	-250.1133728027344	-499.5532836914062	516.0382080078125	-500.0785827636719	-385.0433654785156	597.9041748046875	-495.7207946777344	-36.11437225341797	692.6832885742188	-218.5445098876953	-753.065185546875	130.6368255615234	-434.2922668457031	-108.5261993408203	665.0057373046875	-200.7491302490234	-5.597795009613037	603.8973999023438	-256.224365234375	-79.73241424560547	571.7273559570312	-229.9554748535156	-395.239990234375	529.2188110351562	-519.0623168945312	-30.08212089538574	518.0672607421875	-243.7601470947266	-459.0964050292969	446.2112426757812	-516.36376953125	-545.5955200195312	394.81494140625	-496.9981994628906	23.26113891601562	407.8365173339844	-244.8385009765625	-779.7680053710938	206.3439331054688	-480.4345703125	-57.83283615112305	380.01416015625	-244.1398010253906	-735.2315063476562	373.3175659179688	-357.2605590820312	49.82948684692383	308.1922302246094	-259.6761169433594	-26.66471672058105	289.3524475097656	-258.8530578613281	-711.4188232421875	344.09716796875	-455.5980224609375	63.89300537109375	128.00927734375	-283.8097229003906	264.1838989257812	184.1107635498047	-312.3570556640625	28.95062446594238	75.77486419677734	-341.6123657226562	53.5392951965332	60.39136123657227	-371.6138305664062	37.75008773803711	52.39125061035156	-321.0407409667969	-750.6512451171875	389.1849975585938	-406.468505859375
167	0.83	-94.55677795410156	1449.673217773438	-528.6831665039062	-153.9182281494141	1449.9375	-240.1008605957031	-153.8371887207031	996.837158203125	-513.1207275390625	-116.5719985961914	1000.26611328125	-241.7195129394531	-113.7828216552734	945.1575927734376	-497.0391235351562	-697.0570068359375	389.0469665527344	-390.6294250488281	-90.49644470214844	958.9630737304688	-266.5619201660156	-267.2589111328125	893.1749267578125	-525.4635620117188	-212.6229400634766	866.7420043945312	-197.1730804443359	-275.2795715332031	991.8673095703124	-370.8319702148438	-273.3918151855469	666.888427734375	-544.5098876953125	-561.43017578125	464.5539245605469	-476.4972229003906	-340.4507446289062	688.2052001953125	-504.9480895996094	-294.0829772949219	569.9061889648438	-532.3527221679688	221.3255157470703	124.070930480957	-252.4056854248047	-478.3935241699219	513.7210693359375	-502.5337219238281	-365.1177062988281	592.3905639648438	-498.1518249511719	-18.77215194702148	690.54248046875	-218.640625	-738.8903198242188	134.0914764404297	-433.9747314453125	-91.64851379394533	663.14697265625	-202.3283538818359	12.25099945068359	601.951416015625	-256.7654418945312	-62.1981086730957	570.080810546875	-231.0793151855469	-374.1811828613281	524.6007690429688	-521.4208374023438	-13.1063117980957	515.338134765625	-244.6900634765625	-440.0087585449219	443.089111328125	-518.177001953125	-527.4439086914062	393.7726440429688	-497.8215026855469	39.39802551269531	403.8695983886719	-246.0557403564453	-764.5099487304688	210.685546875	-479.8412780761719	-42.00326919555664	377.0851135253906	-245.2895965576172	-717.0870361328125	376.2072448730469	-356.92431640625	64.71842956542969	304.1880798339844	-260.8193359375	-11.73372650146484	286.5977172851562	-259.4183044433594	-693.9226684570312	346.7044677734375	-455.6840209960938	76.45166015625	123.7872314453125	-285.094970703125	276.621337890625	179.3721771240234	-314.4295043945312	40.70396041870117	72.13015747070312	-342.7601623535156	65.59113311767578	56.41906356811523	-373.0110168457031	49.46303939819336	48.09605407714844	-322.4164123535156	-731.4035034179688	394.5936889648438	-406.7801818847656
